<svg width="126" height="126" viewBox="0 0 126 126" fill="none" xmlns="http://www.w3.org/2000/svg">
<path d="M46.0496 29.5467C45.3461 27.6144 44.9615 25.5287 44.9615 23.3558C44.9615 13.3562 53.0677 5.25 63.0673 5.25C73.0669 5.25 81.1731 13.3562 81.1731 23.3558C81.1731 26.2849 80.4731 29.0615 79.2321 31.5166C81.0178 31.6401 82.753 32.4447 84.018 33.8905C90.8914 41.7457 96.9063 52.9459 96.9063 65.9279C96.9063 75.2091 93.711 82.0866 89.3933 87.042L97.5938 88.4802C100.942 89.0675 103.385 91.9755 103.385 95.375V108.5C103.385 110.357 102.647 112.137 101.334 113.45C100.022 114.763 98.2411 115.5 96.3846 115.5L29.75 115.5C25.884 115.5 22.75 112.366 22.75 108.5V95.375C22.75 91.9794 25.1869 89.0735 28.5306 88.482L35.928 87.1734C31.5514 82.2086 28.3029 75.2926 28.3029 65.9279C28.3029 55.7994 32.228 46.9786 36.8316 40.2186C39.7252 35.9696 43.0012 32.3623 46.0496 29.5467Z" fill="#F4F7FA"/>
<path d="M66.5 65.0024H59.5C59.5 52.149 63.3985 39.3171 72.0232 29.9244C73.3747 28.0848 74.1731 25.8135 74.1731 23.3558C74.1731 17.2222 69.2009 12.25 63.0673 12.25C56.9337 12.25 51.9615 17.2222 51.9615 23.3558C51.9615 26.3819 53.1719 29.1253 55.1349 31.1284C48.1975 36.0741 35.3029 49.3305 35.3029 65.9279C35.3029 82.6776 48.4351 89.4586 55.3243 90.8507L29.75 95.375V108.5L96.3846 108.5V95.375L70.2039 90.7833C77.171 89.2497 89.9062 82.4224 89.9062 65.9279C89.9062 55.1276 84.875 45.5 78.75 38.5C72.0232 43.75 66.5 56 66.5 65.0024Z" fill="#34364C"/>
</svg>
