<svg width="126" height="126" viewBox="0 0 126 126" fill="none" xmlns="http://www.w3.org/2000/svg">
<path fill-rule="evenodd" clip-rule="evenodd" d="M52.5034 6.78136C52.6215 3.00233 55.7191 0 59.5 0H70C73.7809 0 76.8785 3.00233 76.9966 6.78136L77.0581 8.75H80.5C84.366 8.75 87.5 11.884 87.5 15.75V19.9956C95.1303 18.2689 103.366 19.4223 110.356 25.2474C124.878 37.349 123.542 62.7166 106.308 76.592C102.149 79.9405 98.8811 82.7164 96.6312 85.5767C96.1179 86.2293 95.6781 86.8607 95.308 87.4787L102.402 88.4382C105.874 88.9077 108.464 91.8716 108.464 95.375V108.5C108.464 112.366 105.33 115.5 101.464 115.5H28.0359C24.17 115.5 21.0359 112.366 21.0359 108.5V95.375C21.0359 91.8716 23.626 88.9077 27.0978 88.4382L34.192 87.4787C33.8219 86.8607 33.3821 86.2293 32.8688 85.5767C30.6189 82.7164 27.3515 79.9404 23.1924 76.592C5.95808 62.7166 4.6219 37.349 19.1437 25.2474C26.1339 19.4223 34.3697 18.2689 42 19.9956V15.75C42 11.884 45.134 8.75 49 8.75H52.4419L52.5034 6.78136Z" fill="#F4F7FA"/>
<path fill-rule="evenodd" clip-rule="evenodd" d="M59.5 7H70L70.2734 15.75H80.5V26.25H70.6016L71.0824 38.1377C71.2743 37.9117 71.4719 37.69 71.6755 37.4736C81.2361 27.3124 95.4112 21.9051 105.875 30.625C116.375 39.375 116.375 59.5 101.918 71.1395C93.7282 77.7329 86.3928 84.0891 86.7543 93.3855L101.464 95.375V108.5H28.0359V95.375L42.7457 93.3855C43.1072 84.0891 35.7718 77.7329 27.5822 71.1395C13.125 59.5 13.125 39.375 23.625 30.625C34.0888 21.9051 48.2639 27.3124 57.8245 37.4736C58.0281 37.69 58.2257 37.9117 58.4176 38.1377L58.8984 26.25H49V15.75H59.2266L59.5 7ZM49.609 47.203C56.0257 57.7135 56.875 70 56.875 75.3431C53.6588 75.3489 41.5342 70.0148 35.1149 61.2581C30.4934 54.9539 29.2884 45.6006 33.25 41.9693C37.2116 38.3382 45.5986 40.634 49.609 47.203ZM79.891 47.203C73.4743 57.7135 72.625 70 72.625 75.3431C75.8412 75.3489 87.9658 70.0148 94.3851 61.2581C99.0066 54.9539 100.212 45.6006 96.25 41.9693C92.2884 38.3382 83.9014 40.634 79.891 47.203Z" fill="#34364C"/>
</svg>
