<svg width="126" height="126" viewBox="0 0 126 126" fill="none" xmlns="http://www.w3.org/2000/svg">
<path d="M40.4381 71.9722C39.603 73.1123 38.6065 74.2996 37.4449 75.5209C33.3454 79.8312 28.3177 83.3775 25.0729 85.2317L24.527 85.5436C22.346 86.7899 21 89.1093 21 91.6213V108.5C21 112.366 24.134 115.5 28 115.5H96.25C100.116 115.5 103.25 112.366 103.25 108.5V91.6213C103.25 89.1093 101.904 86.7899 99.723 85.5436L99.1772 85.2317C95.9323 83.3775 90.9046 79.8312 86.8052 75.5209C85.6435 74.2996 84.647 73.1123 83.8119 71.9722C86.8841 71.2322 89.1667 68.466 89.1667 65.1667V53.772C89.1667 51.4975 88.0616 49.3649 86.2034 48.0532L83.2304 45.9546C84.9458 42.6215 85.9167 38.8391 85.9167 34.8333C85.9167 21.3944 75.0223 10.5 61.5833 10.5C48.1444 10.5 37.25 21.3944 37.25 34.8333C37.25 39.0644 38.3327 43.0452 40.2317 46.5108L38.0466 48.0532C36.1884 49.3649 35.0833 51.4975 35.0833 53.772V65.1667C35.0833 68.466 37.3659 71.2322 40.4381 71.9722Z" fill="#34364C"/>
<path d="M78.9167 34.8333C78.9167 39.8605 76.7765 44.3878 73.3577 47.5539L82.1667 53.772V65.1667H73.543C73.9589 70.4484 77.3477 75.7344 81.7329 80.3451C86.3867 85.2382 91.9858 89.1846 95.7042 91.3094L96.25 91.6213V108.5H28V91.6213L28.5458 91.3094C32.2642 89.1846 37.8633 85.2382 42.5171 80.3451C46.9023 75.7344 50.2912 70.4484 50.707 65.1667H42.0833V53.772L50.2874 47.9809C46.591 44.8021 44.25 40.0911 44.25 34.8333C44.25 25.2604 52.0104 17.5 61.5833 17.5C71.1563 17.5 78.9167 25.2604 78.9167 34.8333Z" fill="#F4F7FA"/>
</svg>
