<svg width="126" height="126" viewBox="0 0 126 126" fill="none" xmlns="http://www.w3.org/2000/svg">
<path d="M45.5 8.75C46.775 8.75 47.9704 9.09088 49 9.68648C50.0296 9.09088 51.225 8.75 52.5 8.75H71.75C73.025 8.75 74.2204 9.09088 75.25 9.68648C76.2796 9.09088 77.475 8.75 78.75 8.75H96.25C100.116 8.75 103.25 11.884 103.25 15.75V31.5C103.25 33.7033 102.213 35.778 100.45 37.1L89.6487 45.2009L92.7072 72.727C93.5169 80.0145 96.9089 83.7118 101.85 90.3C102.759 91.5117 103.25 92.9854 103.25 94.5V108.5C103.25 112.366 100.116 115.5 96.25 115.5H28C24.134 115.5 21 112.366 21 108.5V94.5C21 92.9854 21.4912 91.5117 22.4 90.3C27.3411 83.7118 30.7331 80.0145 31.5428 72.727L34.6013 45.2009L23.8 37.1C22.0374 35.778 21 33.7033 21 31.5V15.75C21 11.884 24.134 8.75 28 8.75H45.5Z" fill="#34364C"/>
<path d="M28 15.75H45.5V26.25H52.5V15.75H71.75V26.25H78.75V15.75H96.25V31.5L82.25 42L85.75 73.5H38.5L42 42L28 31.5V15.75Z" fill="#F4F7FA"/>
<path d="M38.5 80.5H85.75L96.25 94.5V108.5H28V94.5L38.5 80.5Z" fill="#F4F7FA"/>
</svg>
