<svg width="126" height="126" viewBox="0 0 126 126" fill="none" xmlns="http://www.w3.org/2000/svg">
<path d="M31.5 17.5C31.5 19.2279 31.7779 20.8903 32.2916 22.4452L28.8363 24.0661C25.9718 21.0968 21.9516 19.25 17.5 19.25C8.80151 19.25 1.75 26.3016 1.75 35C1.75 42.7539 7.35315 49.1991 14.7313 50.5075L23.03 78.96C23.2032 79.554 23.4544 80.1223 23.777 80.6502L28.56 88.4768L28.5306 88.482C25.1869 89.0735 22.75 91.9794 22.75 95.375V108.5C22.75 112.366 25.884 115.5 29.75 115.5L96.3846 115.5C98.2411 115.5 100.022 114.763 101.334 113.45C102.647 112.137 103.385 110.357 103.385 108.5V95.375C103.385 91.9755 100.942 89.0675 97.5938 88.4802L97.453 88.4555L102.223 80.6502C102.546 80.1223 102.797 79.554 102.97 78.96L111.269 50.5075C118.647 49.1991 124.25 42.7539 124.25 35C124.25 26.3016 117.198 19.25 108.5 19.25C104.043 19.25 100.018 21.1015 97.1529 24.0773L93.7037 22.4593C94.2204 20.9004 94.5 19.2331 94.5 17.5C94.5 8.80153 87.4485 1.75002 78.75 1.75002C70.0515 1.75002 63 8.80153 63 17.5C63 8.80153 55.9485 1.75002 47.25 1.75002C38.5515 1.75002 31.5 8.80153 31.5 17.5Z" fill="#34364C"/>
<path d="M50.3909 25.6694C53.6717 24.4072 56 21.2255 56 17.5C56 12.6675 52.0825 8.75 47.25 8.75C42.4175 8.75 38.5 12.6675 38.5 17.5C38.5 21.9657 41.8455 25.6501 46.1669 26.1836L42.2647 57.75L23.4538 41.4121C25.1739 39.8143 26.25 37.5328 26.25 35C26.25 30.1675 22.3325 26.25 17.5 26.25C12.6675 26.25 8.75 30.1675 8.75 35C8.75 39.8325 12.6675 43.75 17.5 43.75C18.3507 43.75 19.173 43.6286 19.9506 43.4022L29.75 77L39.8836 93.5823L29.75 95.375V108.5L96.3846 108.5V95.375L86.1209 93.5749L96.25 77L106.049 43.4022C106.827 43.6286 107.649 43.75 108.5 43.75C113.332 43.75 117.25 39.8325 117.25 35C117.25 30.1675 113.332 26.25 108.5 26.25C103.668 26.25 99.75 30.1675 99.75 35C99.75 37.5328 100.826 39.8143 102.546 41.4121L83.7353 57.75L79.8331 26.1836C84.1545 25.6501 87.5 21.9657 87.5 17.5C87.5 12.6675 83.5825 8.75 78.75 8.75C73.9175 8.75 70 12.6675 70 17.5C70 21.2255 72.3283 24.4072 75.6091 25.6694L63 54.25L50.3909 25.6694Z" fill="#F4F7FA"/>
</svg>
